<svg width="466" height="169" viewBox="0 0 466 169" fill="none" xmlns="http://www.w3.org/2000/svg">
<rect width="150" height="150" rx="30" fill="#2C2C5C"/>
<path d="M115.541 73.75C115.541 76.35 115.391 79.1 115.091 82H49.3912C49.8912 90.1 52.6412 96.45 57.6412 101.05C62.7412 105.55 68.8912 107.8 76.0912 107.8C81.9912 107.8 86.8912 106.45 90.7912 103.75C94.7912 100.95 97.5912 97.25 99.1912 92.65H113.891C111.691 100.55 107.291 107 100.691 112C94.0912 116.9 85.8912 119.35 76.0912 119.35C68.2912 119.35 61.2912 117.6 55.0912 114.1C48.9912 110.6 44.1912 105.65 40.6912 99.25C37.1912 92.75 35.4412 85.25 35.4412 76.75C35.4412 68.25 37.1412 60.8 40.5412 54.4C43.9412 48 48.6912 43.1 54.7912 39.7C60.9912 36.2 68.0912 34.45 76.0912 34.45C83.8912 34.45 90.7912 36.15 96.7912 39.55C102.791 42.95 107.391 47.65 110.591 53.65C113.891 59.55 115.541 66.25 115.541 73.75ZM101.441 70.9C101.441 65.7 100.291 61.25 97.9912 57.55C95.6912 53.75 92.5412 50.9 88.5412 49C84.6412 47 80.2912 46 75.4912 46C68.5912 46 62.6912 48.2 57.7912 52.6C52.9912 57 50.2412 63.1 49.5412 70.9H101.441Z" fill="white"/>
<path d="M226.67 76.15C230.47 76.75 233.92 78.3 237.02 80.8C240.22 83.3 242.72 86.4 244.52 90.1C246.42 93.8 247.37 97.75 247.37 101.95C247.37 107.25 246.02 112.05 243.32 116.35C240.62 120.55 236.67 123.9 231.47 126.4C226.37 128.8 220.32 130 213.32 130H174.32V25.45H211.82C218.92 25.45 224.97 26.65 229.97 29.05C234.97 31.35 238.72 34.5 241.22 38.5C243.72 42.5 244.97 47 244.97 52C244.97 58.2 243.27 63.35 239.87 67.45C236.57 71.45 232.17 74.35 226.67 76.15ZM187.97 70.6H210.92C217.32 70.6 222.27 69.1 225.77 66.1C229.27 63.1 231.02 58.95 231.02 53.65C231.02 48.35 229.27 44.2 225.77 41.2C222.27 38.2 217.22 36.7 210.62 36.7H187.97V70.6ZM212.12 118.75C218.92 118.75 224.22 117.15 228.02 113.95C231.82 110.75 233.72 106.3 233.72 100.6C233.72 94.8 231.72 90.25 227.72 86.95C223.72 83.55 218.37 81.85 211.67 81.85H187.97V118.75H212.12ZM302.162 131.35C294.462 131.35 287.462 129.6 281.162 126.1C274.962 122.6 270.062 117.65 266.462 111.25C262.962 104.75 261.212 97.25 261.212 88.75C261.212 80.35 263.012 72.95 266.612 66.55C270.312 60.05 275.312 55.1 281.612 51.7C287.912 48.2 294.962 46.45 302.762 46.45C310.562 46.45 317.612 48.2 323.912 51.7C330.212 55.1 335.162 60 338.762 66.4C342.462 72.8 344.312 80.25 344.312 88.75C344.312 97.25 342.412 104.75 338.612 111.25C334.912 117.65 329.862 122.6 323.462 126.1C317.062 129.6 309.962 131.35 302.162 131.35ZM302.162 119.35C307.062 119.35 311.662 118.2 315.962 115.9C320.262 113.6 323.712 110.15 326.312 105.55C329.012 100.95 330.362 95.35 330.362 88.75C330.362 82.15 329.062 76.55 326.462 71.95C323.862 67.35 320.462 63.95 316.262 61.75C312.062 59.45 307.512 58.3 302.612 58.3C297.612 58.3 293.012 59.45 288.812 61.75C284.712 63.95 281.412 67.35 278.912 71.95C276.412 76.55 275.162 82.15 275.162 88.75C275.162 95.45 276.362 101.1 278.762 105.7C281.262 110.3 284.562 113.75 288.662 116.05C292.762 118.25 297.262 119.35 302.162 119.35ZM433.059 47.8L383.559 168.7H369.459L385.659 129.1L352.509 47.8H367.659L393.459 114.4L418.959 47.8H433.059Z" fill="#2C2C5C"/>
</svg>
